<svg xmlns="http://www.w3.org/2000/svg" viewBox="0 0 448 448" width="448" height="448" shape-rendering="crispEdges">
<rect x="210" y="28" width="14" height="14" fill="#12081f"/>
<rect x="224" y="28" width="14" height="14" fill="#12081f"/>
<rect x="196" y="42" width="14" height="14" fill="#12081f"/>
<rect x="210" y="42" width="14" height="14" fill="#d8c7f5"/>
<rect x="224" y="42" width="14" height="14" fill="#d8c7f5"/>
<rect x="238" y="42" width="14" height="14" fill="#12081f"/>
<rect x="182" y="56" width="14" height="14" fill="#12081f"/>
<rect x="196" y="56" width="14" height="14" fill="#d8c7f5"/>
<rect x="210" y="56" width="14" height="14" fill="#7c3aed"/>
<rect x="224" y="56" width="14" height="14" fill="#7c3aed"/>
<rect x="238" y="56" width="14" height="14" fill="#a480e0"/>
<rect x="252" y="56" width="14" height="14" fill="#12081f"/>
<rect x="168" y="70" width="14" height="14" fill="#12081f"/>
<rect x="182" y="70" width="14" height="14" fill="#d8c7f5"/>
<rect x="196" y="70" width="14" height="14" fill="#d8c7f5"/>
<rect x="210" y="70" width="14" height="14" fill="#7c3aed"/>
<rect x="224" y="70" width="14" height="14" fill="#7c3aed"/>
<rect x="238" y="70" width="14" height="14" fill="#a480e0"/>
<rect x="252" y="70" width="14" height="14" fill="#a480e0"/>
<rect x="266" y="70" width="14" height="14" fill="#12081f"/>
<rect x="168" y="84" width="14" height="14" fill="#d8c7f5"/>
<rect x="182" y="84" width="14" height="14" fill="#d8c7f5"/>
<rect x="196" y="84" width="14" height="14" fill="#7c3aed"/>
<rect x="210" y="84" width="14" height="14" fill="#7c3aed"/>
<rect x="224" y="84" width="14" height="14" fill="#7c3aed"/>
<rect x="238" y="84" width="14" height="14" fill="#7c3aed"/>
<rect x="252" y="84" width="14" height="14" fill="#a480e0"/>
<rect x="266" y="84" width="14" height="14" fill="#a480e0"/>
<rect x="154" y="98" width="14" height="14" fill="#d8c7f5"/>
<rect x="168" y="98" width="14" height="14" fill="#d8c7f5"/>
<rect x="182" y="98" width="14" height="14" fill="#7c3aed"/>
<rect x="196" y="98" width="14" height="14" fill="#12081f"/>
<rect x="210" y="98" width="14" height="14" fill="#12081f"/>
<rect x="224" y="98" width="14" height="14" fill="#12081f"/>
<rect x="238" y="98" width="14" height="14" fill="#12081f"/>
<rect x="252" y="98" width="14" height="14" fill="#7c3aed"/>
<rect x="266" y="98" width="14" height="14" fill="#a480e0"/>
<rect x="280" y="98" width="14" height="14" fill="#a480e0"/>
<rect x="140" y="112" width="14" height="14" fill="#d8c7f5"/>
<rect x="154" y="112" width="14" height="14" fill="#d8c7f5"/>
<rect x="168" y="112" width="14" height="14" fill="#7c3aed"/>
<rect x="182" y="112" width="14" height="14" fill="#12081f"/>
<rect x="196" y="112" width="14" height="14" fill="#0d0616"/>
<rect x="210" y="112" width="14" height="14" fill="#0d0616"/>
<rect x="224" y="112" width="14" height="14" fill="#0d0616"/>
<rect x="238" y="112" width="14" height="14" fill="#0d0616"/>
<rect x="252" y="112" width="14" height="14" fill="#12081f"/>
<rect x="266" y="112" width="14" height="14" fill="#7c3aed"/>
<rect x="280" y="112" width="14" height="14" fill="#a480e0"/>
<rect x="294" y="112" width="14" height="14" fill="#a480e0"/>
<rect x="126" y="126" width="14" height="14" fill="#12081f"/>
<rect x="140" y="126" width="14" height="14" fill="#d8c7f5"/>
<rect x="154" y="126" width="14" height="14" fill="#9370e8"/>
<rect x="168" y="126" width="14" height="14" fill="#b794f6"/>
<rect x="182" y="126" width="14" height="14" fill="#12081f"/>
<rect x="196" y="126" width="14" height="14" fill="#0d0616"/>
<rect x="210" y="126" width="14" height="14" fill="#0d0616"/>
<rect x="224" y="126" width="14" height="14" fill="#0d0616"/>
<rect x="238" y="126" width="14" height="14" fill="#0d0616"/>
<rect x="252" y="126" width="14" height="14" fill="#b794f6"/>
<rect x="266" y="126" width="14" height="14" fill="#7c3aed"/>
<rect x="280" y="126" width="14" height="14" fill="#7c3aed"/>
<rect x="294" y="126" width="14" height="14" fill="#a480e0"/>
<rect x="308" y="126" width="14" height="14" fill="#12081f"/>
<rect x="112" y="140" width="14" height="14" fill="#12081f"/>
<rect x="126" y="140" width="14" height="14" fill="#d8c7f5"/>
<rect x="140" y="140" width="14" height="14" fill="#9370e8"/>
<rect x="154" y="140" width="14" height="14" fill="#b794f6"/>
<rect x="168" y="140" width="14" height="14" fill="#eef7ec"/>
<rect x="182" y="140" width="14" height="14" fill="#b794f6"/>
<rect x="196" y="140" width="14" height="14" fill="#0d0616"/>
<rect x="210" y="140" width="14" height="14" fill="#0d0616"/>
<rect x="224" y="140" width="14" height="14" fill="#0d0616"/>
<rect x="238" y="140" width="14" height="14" fill="#b794f6"/>
<rect x="252" y="140" width="14" height="14" fill="#eef7ec"/>
<rect x="266" y="140" width="14" height="14" fill="#b794f6"/>
<rect x="280" y="140" width="14" height="14" fill="#7c3aed"/>
<rect x="294" y="140" width="14" height="14" fill="#7c3aed"/>
<rect x="308" y="140" width="14" height="14" fill="#a480e0"/>
<rect x="322" y="140" width="14" height="14" fill="#12081f"/>
<rect x="98" y="154" width="14" height="14" fill="#12081f"/>
<rect x="112" y="154" width="14" height="14" fill="#d8c7f5"/>
<rect x="126" y="154" width="14" height="14" fill="#9370e8"/>
<rect x="140" y="154" width="14" height="14" fill="#9370e8"/>
<rect x="154" y="154" width="14" height="14" fill="#12081f"/>
<rect x="168" y="154" width="14" height="14" fill="#b794f6"/>
<rect x="182" y="154" width="14" height="14" fill="#0d0616"/>
<rect x="196" y="154" width="14" height="14" fill="#0d0616"/>
<rect x="210" y="154" width="14" height="14" fill="#0d0616"/>
<rect x="224" y="154" width="14" height="14" fill="#0d0616"/>
<rect x="238" y="154" width="14" height="14" fill="#0d0616"/>
<rect x="252" y="154" width="14" height="14" fill="#b794f6"/>
<rect x="266" y="154" width="14" height="14" fill="#0d0616"/>
<rect x="280" y="154" width="14" height="14" fill="#12081f"/>
<rect x="294" y="154" width="14" height="14" fill="#7c3aed"/>
<rect x="308" y="154" width="14" height="14" fill="#7c3aed"/>
<rect x="322" y="154" width="14" height="14" fill="#a480e0"/>
<rect x="336" y="154" width="14" height="14" fill="#12081f"/>
<rect x="84" y="168" width="14" height="14" fill="#12081f"/>
<rect x="98" y="168" width="14" height="14" fill="#d8c7f5"/>
<rect x="112" y="168" width="14" height="14" fill="#d8c7f5"/>
<rect x="126" y="168" width="14" height="14" fill="#9370e8"/>
<rect x="140" y="168" width="14" height="14" fill="#12081f"/>
<rect x="154" y="168" width="14" height="14" fill="#12081f"/>
<rect x="168" y="168" width="14" height="14" fill="#12081f"/>
<rect x="182" y="168" width="14" height="14" fill="#12081f"/>
<rect x="196" y="168" width="14" height="14" fill="#12081f"/>
<rect x="210" y="168" width="14" height="14" fill="#12081f"/>
<rect x="224" y="168" width="14" height="14" fill="#12081f"/>
<rect x="238" y="168" width="14" height="14" fill="#12081f"/>
<rect x="252" y="168" width="14" height="14" fill="#12081f"/>
<rect x="266" y="168" width="14" height="14" fill="#12081f"/>
<rect x="280" y="168" width="14" height="14" fill="#12081f"/>
<rect x="294" y="168" width="14" height="14" fill="#12081f"/>
<rect x="308" y="168" width="14" height="14" fill="#7c3aed"/>
<rect x="322" y="168" width="14" height="14" fill="#a480e0"/>
<rect x="336" y="168" width="14" height="14" fill="#a480e0"/>
<rect x="350" y="168" width="14" height="14" fill="#12081f"/>
<rect x="70" y="182" width="14" height="14" fill="#12081f"/>
<rect x="84" y="182" width="14" height="14" fill="#d8c7f5"/>
<rect x="98" y="182" width="14" height="14" fill="#d8c7f5"/>
<rect x="112" y="182" width="14" height="14" fill="#9370e8"/>
<rect x="126" y="182" width="14" height="14" fill="#9370e8"/>
<rect x="140" y="182" width="14" height="14" fill="#9370e8"/>
<rect x="154" y="182" width="14" height="14" fill="#7c3aed"/>
<rect x="168" y="182" width="14" height="14" fill="#7c3aed"/>
<rect x="182" y="182" width="14" height="14" fill="#7c3aed"/>
<rect x="196" y="182" width="14" height="14" fill="#7c3aed"/>
<rect x="210" y="182" width="14" height="14" fill="#7c3aed"/>
<rect x="224" y="182" width="14" height="14" fill="#7c3aed"/>
<rect x="238" y="182" width="14" height="14" fill="#7c3aed"/>
<rect x="252" y="182" width="14" height="14" fill="#7c3aed"/>
<rect x="266" y="182" width="14" height="14" fill="#7c3aed"/>
<rect x="280" y="182" width="14" height="14" fill="#7c3aed"/>
<rect x="294" y="182" width="14" height="14" fill="#7c3aed"/>
<rect x="308" y="182" width="14" height="14" fill="#7c3aed"/>
<rect x="322" y="182" width="14" height="14" fill="#7c3aed"/>
<rect x="336" y="182" width="14" height="14" fill="#a480e0"/>
<rect x="350" y="182" width="14" height="14" fill="#a480e0"/>
<rect x="364" y="182" width="14" height="14" fill="#12081f"/>
<rect x="70" y="196" width="14" height="14" fill="#12081f"/>
<rect x="84" y="196" width="14" height="14" fill="#9370e8"/>
<rect x="98" y="196" width="14" height="14" fill="#9370e8"/>
<rect x="112" y="196" width="14" height="14" fill="#9370e8"/>
<rect x="126" y="196" width="14" height="14" fill="#9370e8"/>
<rect x="140" y="196" width="14" height="14" fill="#9370e8"/>
<rect x="154" y="196" width="14" height="14" fill="#7c3aed"/>
<rect x="168" y="196" width="14" height="14" fill="#7c3aed"/>
<rect x="182" y="196" width="14" height="14" fill="#7c3aed"/>
<rect x="196" y="196" width="14" height="14" fill="#7c3aed"/>
<rect x="210" y="196" width="14" height="14" fill="#7c3aed"/>
<rect x="224" y="196" width="14" height="14" fill="#7c3aed"/>
<rect x="238" y="196" width="14" height="14" fill="#7c3aed"/>
<rect x="252" y="196" width="14" height="14" fill="#7c3aed"/>
<rect x="266" y="196" width="14" height="14" fill="#7c3aed"/>
<rect x="280" y="196" width="14" height="14" fill="#7c3aed"/>
<rect x="294" y="196" width="14" height="14" fill="#7c3aed"/>
<rect x="308" y="196" width="14" height="14" fill="#7c3aed"/>
<rect x="322" y="196" width="14" height="14" fill="#7c3aed"/>
<rect x="336" y="196" width="14" height="14" fill="#7c3aed"/>
<rect x="350" y="196" width="14" height="14" fill="#7c3aed"/>
<rect x="364" y="196" width="14" height="14" fill="#12081f"/>
<rect x="56" y="210" width="14" height="14" fill="#12081f"/>
<rect x="70" y="210" width="14" height="14" fill="#9370e8"/>
<rect x="84" y="210" width="14" height="14" fill="#9370e8"/>
<rect x="98" y="210" width="14" height="14" fill="#9370e8"/>
<rect x="112" y="210" width="14" height="14" fill="#9370e8"/>
<rect x="126" y="210" width="14" height="14" fill="#9370e8"/>
<rect x="140" y="210" width="14" height="14" fill="#9370e8"/>
<rect x="154" y="210" width="14" height="14" fill="#7c3aed"/>
<rect x="168" y="210" width="14" height="14" fill="#7c3aed"/>
<rect x="182" y="210" width="14" height="14" fill="#7c3aed"/>
<rect x="196" y="210" width="14" height="14" fill="#7c3aed"/>
<rect x="210" y="210" width="14" height="14" fill="#f3d16b"/>
<rect x="224" y="210" width="14" height="14" fill="#7c3aed"/>
<rect x="238" y="210" width="14" height="14" fill="#7c3aed"/>
<rect x="252" y="210" width="14" height="14" fill="#7c3aed"/>
<rect x="266" y="210" width="14" height="14" fill="#7c3aed"/>
<rect x="280" y="210" width="14" height="14" fill="#7c3aed"/>
<rect x="294" y="210" width="14" height="14" fill="#7c3aed"/>
<rect x="308" y="210" width="14" height="14" fill="#7c3aed"/>
<rect x="322" y="210" width="14" height="14" fill="#7c3aed"/>
<rect x="336" y="210" width="14" height="14" fill="#7c3aed"/>
<rect x="350" y="210" width="14" height="14" fill="#7c3aed"/>
<rect x="364" y="210" width="14" height="14" fill="#4c2889"/>
<rect x="378" y="210" width="14" height="14" fill="#12081f"/>
<rect x="42" y="224" width="14" height="14" fill="#12081f"/>
<rect x="56" y="224" width="14" height="14" fill="#9370e8"/>
<rect x="70" y="224" width="14" height="14" fill="#9370e8"/>
<rect x="84" y="224" width="14" height="14" fill="#9370e8"/>
<rect x="98" y="224" width="14" height="14" fill="#4c2889"/>
<rect x="112" y="224" width="14" height="14" fill="#9370e8"/>
<rect x="126" y="224" width="14" height="14" fill="#9370e8"/>
<rect x="140" y="224" width="14" height="14" fill="#9370e8"/>
<rect x="154" y="224" width="14" height="14" fill="#4c2889"/>
<rect x="168" y="224" width="14" height="14" fill="#7c3aed"/>
<rect x="182" y="224" width="14" height="14" fill="#7c3aed"/>
<rect x="196" y="224" width="14" height="14" fill="#7c3aed"/>
<rect x="210" y="224" width="14" height="14" fill="#c9a83f"/>
<rect x="224" y="224" width="14" height="14" fill="#7c3aed"/>
<rect x="238" y="224" width="14" height="14" fill="#7c3aed"/>
<rect x="252" y="224" width="14" height="14" fill="#7c3aed"/>
<rect x="266" y="224" width="14" height="14" fill="#4c2889"/>
<rect x="280" y="224" width="14" height="14" fill="#7c3aed"/>
<rect x="294" y="224" width="14" height="14" fill="#7c3aed"/>
<rect x="308" y="224" width="14" height="14" fill="#7c3aed"/>
<rect x="322" y="224" width="14" height="14" fill="#4c2889"/>
<rect x="336" y="224" width="14" height="14" fill="#7c3aed"/>
<rect x="350" y="224" width="14" height="14" fill="#7c3aed"/>
<rect x="364" y="224" width="14" height="14" fill="#4c2889"/>
<rect x="378" y="224" width="14" height="14" fill="#4c2889"/>
<rect x="392" y="224" width="14" height="14" fill="#12081f"/>
<rect x="42" y="238" width="14" height="14" fill="#12081f"/>
<rect x="56" y="238" width="14" height="14" fill="#9370e8"/>
<rect x="70" y="238" width="14" height="14" fill="#9370e8"/>
<rect x="84" y="238" width="14" height="14" fill="#9370e8"/>
<rect x="98" y="238" width="14" height="14" fill="#4c2889"/>
<rect x="112" y="238" width="14" height="14" fill="#9370e8"/>
<rect x="126" y="238" width="14" height="14" fill="#9370e8"/>
<rect x="140" y="238" width="14" height="14" fill="#9370e8"/>
<rect x="154" y="238" width="14" height="14" fill="#4c2889"/>
<rect x="168" y="238" width="14" height="14" fill="#7c3aed"/>
<rect x="182" y="238" width="14" height="14" fill="#7c3aed"/>
<rect x="196" y="238" width="14" height="14" fill="#7c3aed"/>
<rect x="210" y="238" width="14" height="14" fill="#4c2889"/>
<rect x="224" y="238" width="14" height="14" fill="#7c3aed"/>
<rect x="238" y="238" width="14" height="14" fill="#7c3aed"/>
<rect x="252" y="238" width="14" height="14" fill="#7c3aed"/>
<rect x="266" y="238" width="14" height="14" fill="#4c2889"/>
<rect x="280" y="238" width="14" height="14" fill="#7c3aed"/>
<rect x="294" y="238" width="14" height="14" fill="#7c3aed"/>
<rect x="308" y="238" width="14" height="14" fill="#7c3aed"/>
<rect x="322" y="238" width="14" height="14" fill="#4c2889"/>
<rect x="336" y="238" width="14" height="14" fill="#7c3aed"/>
<rect x="350" y="238" width="14" height="14" fill="#7c3aed"/>
<rect x="364" y="238" width="14" height="14" fill="#4c2889"/>
<rect x="378" y="238" width="14" height="14" fill="#4c2889"/>
<rect x="392" y="238" width="14" height="14" fill="#12081f"/>
<rect x="42" y="252" width="14" height="14" fill="#12081f"/>
<rect x="56" y="252" width="14" height="14" fill="#9370e8"/>
<rect x="70" y="252" width="14" height="14" fill="#9370e8"/>
<rect x="84" y="252" width="14" height="14" fill="#9370e8"/>
<rect x="98" y="252" width="14" height="14" fill="#4c2889"/>
<rect x="112" y="252" width="14" height="14" fill="#9370e8"/>
<rect x="126" y="252" width="14" height="14" fill="#9370e8"/>
<rect x="140" y="252" width="14" height="14" fill="#9370e8"/>
<rect x="154" y="252" width="14" height="14" fill="#4c2889"/>
<rect x="168" y="252" width="14" height="14" fill="#7c3aed"/>
<rect x="182" y="252" width="14" height="14" fill="#7c3aed"/>
<rect x="196" y="252" width="14" height="14" fill="#7c3aed"/>
<rect x="210" y="252" width="14" height="14" fill="#4c2889"/>
<rect x="224" y="252" width="14" height="14" fill="#7c3aed"/>
<rect x="238" y="252" width="14" height="14" fill="#7c3aed"/>
<rect x="252" y="252" width="14" height="14" fill="#7c3aed"/>
<rect x="266" y="252" width="14" height="14" fill="#4c2889"/>
<rect x="280" y="252" width="14" height="14" fill="#7c3aed"/>
<rect x="294" y="252" width="14" height="14" fill="#7c3aed"/>
<rect x="308" y="252" width="14" height="14" fill="#7c3aed"/>
<rect x="322" y="252" width="14" height="14" fill="#4c2889"/>
<rect x="336" y="252" width="14" height="14" fill="#7c3aed"/>
<rect x="350" y="252" width="14" height="14" fill="#4c2889"/>
<rect x="364" y="252" width="14" height="14" fill="#4c2889"/>
<rect x="378" y="252" width="14" height="14" fill="#4c2889"/>
<rect x="392" y="252" width="14" height="14" fill="#12081f"/>
<rect x="28" y="266" width="14" height="14" fill="#12081f"/>
<rect x="42" y="266" width="14" height="14" fill="#4c2889"/>
<rect x="56" y="266" width="14" height="14" fill="#9370e8"/>
<rect x="70" y="266" width="14" height="14" fill="#9370e8"/>
<rect x="84" y="266" width="14" height="14" fill="#9370e8"/>
<rect x="98" y="266" width="14" height="14" fill="#4c2889"/>
<rect x="112" y="266" width="14" height="14" fill="#9370e8"/>
<rect x="126" y="266" width="14" height="14" fill="#9370e8"/>
<rect x="140" y="266" width="14" height="14" fill="#9370e8"/>
<rect x="154" y="266" width="14" height="14" fill="#4c2889"/>
<rect x="168" y="266" width="14" height="14" fill="#7c3aed"/>
<rect x="182" y="266" width="14" height="14" fill="#7c3aed"/>
<rect x="196" y="266" width="14" height="14" fill="#7c3aed"/>
<rect x="210" y="266" width="14" height="14" fill="#4c2889"/>
<rect x="224" y="266" width="14" height="14" fill="#7c3aed"/>
<rect x="238" y="266" width="14" height="14" fill="#7c3aed"/>
<rect x="252" y="266" width="14" height="14" fill="#7c3aed"/>
<rect x="266" y="266" width="14" height="14" fill="#4c2889"/>
<rect x="280" y="266" width="14" height="14" fill="#7c3aed"/>
<rect x="294" y="266" width="14" height="14" fill="#7c3aed"/>
<rect x="308" y="266" width="14" height="14" fill="#7c3aed"/>
<rect x="322" y="266" width="14" height="14" fill="#4c2889"/>
<rect x="336" y="266" width="14" height="14" fill="#7c3aed"/>
<rect x="350" y="266" width="14" height="14" fill="#4c2889"/>
<rect x="364" y="266" width="14" height="14" fill="#4c2889"/>
<rect x="378" y="266" width="14" height="14" fill="#4c2889"/>
<rect x="392" y="266" width="14" height="14" fill="#4c2889"/>
<rect x="406" y="266" width="14" height="14" fill="#12081f"/>
<rect x="28" y="280" width="14" height="14" fill="#12081f"/>
<rect x="42" y="280" width="14" height="14" fill="#4c2889"/>
<rect x="56" y="280" width="14" height="14" fill="#9370e8"/>
<rect x="70" y="280" width="14" height="14" fill="#9370e8"/>
<rect x="84" y="280" width="14" height="14" fill="#9370e8"/>
<rect x="98" y="280" width="14" height="14" fill="#4c2889"/>
<rect x="112" y="280" width="14" height="14" fill="#9370e8"/>
<rect x="126" y="280" width="14" height="14" fill="#9370e8"/>
<rect x="140" y="280" width="14" height="14" fill="#9370e8"/>
<rect x="154" y="280" width="14" height="14" fill="#4c2889"/>
<rect x="168" y="280" width="14" height="14" fill="#7c3aed"/>
<rect x="182" y="280" width="14" height="14" fill="#7c3aed"/>
<rect x="196" y="280" width="14" height="14" fill="#7c3aed"/>
<rect x="210" y="280" width="14" height="14" fill="#4c2889"/>
<rect x="224" y="280" width="14" height="14" fill="#7c3aed"/>
<rect x="238" y="280" width="14" height="14" fill="#7c3aed"/>
<rect x="252" y="280" width="14" height="14" fill="#7c3aed"/>
<rect x="266" y="280" width="14" height="14" fill="#4c2889"/>
<rect x="280" y="280" width="14" height="14" fill="#7c3aed"/>
<rect x="294" y="280" width="14" height="14" fill="#7c3aed"/>
<rect x="308" y="280" width="14" height="14" fill="#7c3aed"/>
<rect x="322" y="280" width="14" height="14" fill="#4c2889"/>
<rect x="336" y="280" width="14" height="14" fill="#7c3aed"/>
<rect x="350" y="280" width="14" height="14" fill="#4c2889"/>
<rect x="364" y="280" width="14" height="14" fill="#4c2889"/>
<rect x="378" y="280" width="14" height="14" fill="#4c2889"/>
<rect x="392" y="280" width="14" height="14" fill="#4c2889"/>
<rect x="406" y="280" width="14" height="14" fill="#12081f"/>
<rect x="28" y="294" width="14" height="14" fill="#12081f"/>
<rect x="42" y="294" width="14" height="14" fill="#4c2889"/>
<rect x="56" y="294" width="14" height="14" fill="#9370e8"/>
<rect x="70" y="294" width="14" height="14" fill="#9370e8"/>
<rect x="84" y="294" width="14" height="14" fill="#9370e8"/>
<rect x="98" y="294" width="14" height="14" fill="#4c2889"/>
<rect x="112" y="294" width="14" height="14" fill="#9370e8"/>
<rect x="126" y="294" width="14" height="14" fill="#9370e8"/>
<rect x="140" y="294" width="14" height="14" fill="#9370e8"/>
<rect x="154" y="294" width="14" height="14" fill="#4c2889"/>
<rect x="168" y="294" width="14" height="14" fill="#7c3aed"/>
<rect x="182" y="294" width="14" height="14" fill="#7c3aed"/>
<rect x="196" y="294" width="14" height="14" fill="#7c3aed"/>
<rect x="210" y="294" width="14" height="14" fill="#4c2889"/>
<rect x="224" y="294" width="14" height="14" fill="#7c3aed"/>
<rect x="238" y="294" width="14" height="14" fill="#7c3aed"/>
<rect x="252" y="294" width="14" height="14" fill="#7c3aed"/>
<rect x="266" y="294" width="14" height="14" fill="#4c2889"/>
<rect x="280" y="294" width="14" height="14" fill="#7c3aed"/>
<rect x="294" y="294" width="14" height="14" fill="#7c3aed"/>
<rect x="308" y="294" width="14" height="14" fill="#7c3aed"/>
<rect x="322" y="294" width="14" height="14" fill="#4c2889"/>
<rect x="336" y="294" width="14" height="14" fill="#7c3aed"/>
<rect x="350" y="294" width="14" height="14" fill="#4c2889"/>
<rect x="364" y="294" width="14" height="14" fill="#4c2889"/>
<rect x="378" y="294" width="14" height="14" fill="#4c2889"/>
<rect x="392" y="294" width="14" height="14" fill="#4c2889"/>
<rect x="406" y="294" width="14" height="14" fill="#12081f"/>
<rect x="28" y="308" width="14" height="14" fill="#12081f"/>
<rect x="42" y="308" width="14" height="14" fill="#4c2889"/>
<rect x="56" y="308" width="14" height="14" fill="#9370e8"/>
<rect x="70" y="308" width="14" height="14" fill="#9370e8"/>
<rect x="84" y="308" width="14" height="14" fill="#9370e8"/>
<rect x="98" y="308" width="14" height="14" fill="#4c2889"/>
<rect x="112" y="308" width="14" height="14" fill="#9370e8"/>
<rect x="126" y="308" width="14" height="14" fill="#9370e8"/>
<rect x="140" y="308" width="14" height="14" fill="#9370e8"/>
<rect x="154" y="308" width="14" height="14" fill="#4c2889"/>
<rect x="168" y="308" width="14" height="14" fill="#7c3aed"/>
<rect x="182" y="308" width="14" height="14" fill="#7c3aed"/>
<rect x="196" y="308" width="14" height="14" fill="#7c3aed"/>
<rect x="210" y="308" width="14" height="14" fill="#4c2889"/>
<rect x="224" y="308" width="14" height="14" fill="#7c3aed"/>
<rect x="238" y="308" width="14" height="14" fill="#7c3aed"/>
<rect x="252" y="308" width="14" height="14" fill="#7c3aed"/>
<rect x="266" y="308" width="14" height="14" fill="#4c2889"/>
<rect x="280" y="308" width="14" height="14" fill="#7c3aed"/>
<rect x="294" y="308" width="14" height="14" fill="#7c3aed"/>
<rect x="308" y="308" width="14" height="14" fill="#7c3aed"/>
<rect x="322" y="308" width="14" height="14" fill="#4c2889"/>
<rect x="336" y="308" width="14" height="14" fill="#7c3aed"/>
<rect x="350" y="308" width="14" height="14" fill="#4c2889"/>
<rect x="364" y="308" width="14" height="14" fill="#4c2889"/>
<rect x="378" y="308" width="14" height="14" fill="#4c2889"/>
<rect x="392" y="308" width="14" height="14" fill="#4c2889"/>
<rect x="406" y="308" width="14" height="14" fill="#12081f"/>
<rect x="28" y="322" width="14" height="14" fill="#12081f"/>
<rect x="42" y="322" width="14" height="14" fill="#4c2889"/>
<rect x="56" y="322" width="14" height="14" fill="#9370e8"/>
<rect x="70" y="322" width="14" height="14" fill="#9370e8"/>
<rect x="84" y="322" width="14" height="14" fill="#9370e8"/>
<rect x="98" y="322" width="14" height="14" fill="#4c2889"/>
<rect x="112" y="322" width="14" height="14" fill="#9370e8"/>
<rect x="126" y="322" width="14" height="14" fill="#9370e8"/>
<rect x="140" y="322" width="14" height="14" fill="#7c3aed"/>
<rect x="154" y="322" width="14" height="14" fill="#4c2889"/>
<rect x="168" y="322" width="14" height="14" fill="#7c3aed"/>
<rect x="182" y="322" width="14" height="14" fill="#7c3aed"/>
<rect x="196" y="322" width="14" height="14" fill="#7c3aed"/>
<rect x="210" y="322" width="14" height="14" fill="#4c2889"/>
<rect x="224" y="322" width="14" height="14" fill="#7c3aed"/>
<rect x="238" y="322" width="14" height="14" fill="#7c3aed"/>
<rect x="252" y="322" width="14" height="14" fill="#7c3aed"/>
<rect x="266" y="322" width="14" height="14" fill="#4c2889"/>
<rect x="280" y="322" width="14" height="14" fill="#7c3aed"/>
<rect x="294" y="322" width="14" height="14" fill="#7c3aed"/>
<rect x="308" y="322" width="14" height="14" fill="#7c3aed"/>
<rect x="322" y="322" width="14" height="14" fill="#4c2889"/>
<rect x="336" y="322" width="14" height="14" fill="#7c3aed"/>
<rect x="350" y="322" width="14" height="14" fill="#4c2889"/>
<rect x="364" y="322" width="14" height="14" fill="#4c2889"/>
<rect x="378" y="322" width="14" height="14" fill="#4c2889"/>
<rect x="392" y="322" width="14" height="14" fill="#4c2889"/>
<rect x="406" y="322" width="14" height="14" fill="#12081f"/>
<rect x="14" y="336" width="14" height="14" fill="#12081f"/>
<rect x="28" y="336" width="14" height="14" fill="#9370e8"/>
<rect x="42" y="336" width="14" height="14" fill="#4c2889"/>
<rect x="56" y="336" width="14" height="14" fill="#9370e8"/>
<rect x="70" y="336" width="14" height="14" fill="#9370e8"/>
<rect x="84" y="336" width="14" height="14" fill="#9370e8"/>
<rect x="98" y="336" width="14" height="14" fill="#4c2889"/>
<rect x="112" y="336" width="14" height="14" fill="#9370e8"/>
<rect x="126" y="336" width="14" height="14" fill="#9370e8"/>
<rect x="140" y="336" width="14" height="14" fill="#7c3aed"/>
<rect x="154" y="336" width="14" height="14" fill="#4c2889"/>
<rect x="168" y="336" width="14" height="14" fill="#7c3aed"/>
<rect x="182" y="336" width="14" height="14" fill="#7c3aed"/>
<rect x="196" y="336" width="14" height="14" fill="#7c3aed"/>
<rect x="210" y="336" width="14" height="14" fill="#4c2889"/>
<rect x="224" y="336" width="14" height="14" fill="#7c3aed"/>
<rect x="238" y="336" width="14" height="14" fill="#7c3aed"/>
<rect x="252" y="336" width="14" height="14" fill="#7c3aed"/>
<rect x="266" y="336" width="14" height="14" fill="#4c2889"/>
<rect x="280" y="336" width="14" height="14" fill="#7c3aed"/>
<rect x="294" y="336" width="14" height="14" fill="#7c3aed"/>
<rect x="308" y="336" width="14" height="14" fill="#7c3aed"/>
<rect x="322" y="336" width="14" height="14" fill="#4c2889"/>
<rect x="336" y="336" width="14" height="14" fill="#7c3aed"/>
<rect x="350" y="336" width="14" height="14" fill="#4c2889"/>
<rect x="364" y="336" width="14" height="14" fill="#4c2889"/>
<rect x="378" y="336" width="14" height="14" fill="#4c2889"/>
<rect x="392" y="336" width="14" height="14" fill="#4c2889"/>
<rect x="406" y="336" width="14" height="14" fill="#4c2889"/>
<rect x="420" y="336" width="14" height="14" fill="#12081f"/>
<rect x="14" y="350" width="14" height="14" fill="#12081f"/>
<rect x="28" y="350" width="14" height="14" fill="#9370e8"/>
<rect x="42" y="350" width="14" height="14" fill="#4c2889"/>
<rect x="56" y="350" width="14" height="14" fill="#9370e8"/>
<rect x="70" y="350" width="14" height="14" fill="#9370e8"/>
<rect x="84" y="350" width="14" height="14" fill="#9370e8"/>
<rect x="98" y="350" width="14" height="14" fill="#4c2889"/>
<rect x="112" y="350" width="14" height="14" fill="#9370e8"/>
<rect x="126" y="350" width="14" height="14" fill="#9370e8"/>
<rect x="140" y="350" width="14" height="14" fill="#7c3aed"/>
<rect x="154" y="350" width="14" height="14" fill="#4c2889"/>
<rect x="168" y="350" width="14" height="14" fill="#7c3aed"/>
<rect x="182" y="350" width="14" height="14" fill="#7c3aed"/>
<rect x="196" y="350" width="14" height="14" fill="#7c3aed"/>
<rect x="210" y="350" width="14" height="14" fill="#4c2889"/>
<rect x="224" y="350" width="14" height="14" fill="#7c3aed"/>
<rect x="238" y="350" width="14" height="14" fill="#7c3aed"/>
<rect x="252" y="350" width="14" height="14" fill="#7c3aed"/>
<rect x="266" y="350" width="14" height="14" fill="#4c2889"/>
<rect x="280" y="350" width="14" height="14" fill="#7c3aed"/>
<rect x="294" y="350" width="14" height="14" fill="#7c3aed"/>
<rect x="308" y="350" width="14" height="14" fill="#7c3aed"/>
<rect x="322" y="350" width="14" height="14" fill="#4c2889"/>
<rect x="336" y="350" width="14" height="14" fill="#7c3aed"/>
<rect x="350" y="350" width="14" height="14" fill="#4c2889"/>
<rect x="364" y="350" width="14" height="14" fill="#4c2889"/>
<rect x="378" y="350" width="14" height="14" fill="#4c2889"/>
<rect x="392" y="350" width="14" height="14" fill="#4c2889"/>
<rect x="406" y="350" width="14" height="14" fill="#4c2889"/>
<rect x="420" y="350" width="14" height="14" fill="#12081f"/>
<rect x="14" y="364" width="14" height="14" fill="#12081f"/>
<rect x="28" y="364" width="14" height="14" fill="#9370e8"/>
<rect x="42" y="364" width="14" height="14" fill="#4c2889"/>
<rect x="56" y="364" width="14" height="14" fill="#9370e8"/>
<rect x="70" y="364" width="14" height="14" fill="#9370e8"/>
<rect x="84" y="364" width="14" height="14" fill="#9370e8"/>
<rect x="98" y="364" width="14" height="14" fill="#4c2889"/>
<rect x="112" y="364" width="14" height="14" fill="#9370e8"/>
<rect x="126" y="364" width="14" height="14" fill="#9370e8"/>
<rect x="140" y="364" width="14" height="14" fill="#7c3aed"/>
<rect x="154" y="364" width="14" height="14" fill="#4c2889"/>
<rect x="168" y="364" width="14" height="14" fill="#7c3aed"/>
<rect x="182" y="364" width="14" height="14" fill="#7c3aed"/>
<rect x="196" y="364" width="14" height="14" fill="#7c3aed"/>
<rect x="210" y="364" width="14" height="14" fill="#4c2889"/>
<rect x="224" y="364" width="14" height="14" fill="#7c3aed"/>
<rect x="238" y="364" width="14" height="14" fill="#7c3aed"/>
<rect x="252" y="364" width="14" height="14" fill="#7c3aed"/>
<rect x="266" y="364" width="14" height="14" fill="#4c2889"/>
<rect x="280" y="364" width="14" height="14" fill="#7c3aed"/>
<rect x="294" y="364" width="14" height="14" fill="#7c3aed"/>
<rect x="308" y="364" width="14" height="14" fill="#7c3aed"/>
<rect x="322" y="364" width="14" height="14" fill="#4c2889"/>
<rect x="336" y="364" width="14" height="14" fill="#7c3aed"/>
<rect x="350" y="364" width="14" height="14" fill="#4c2889"/>
<rect x="364" y="364" width="14" height="14" fill="#4c2889"/>
<rect x="378" y="364" width="14" height="14" fill="#4c2889"/>
<rect x="392" y="364" width="14" height="14" fill="#4c2889"/>
<rect x="406" y="364" width="14" height="14" fill="#4c2889"/>
<rect x="420" y="364" width="14" height="14" fill="#12081f"/>
<rect x="14" y="378" width="14" height="14" fill="#12081f"/>
<rect x="28" y="378" width="14" height="14" fill="#9370e8"/>
<rect x="42" y="378" width="14" height="14" fill="#4c2889"/>
<rect x="56" y="378" width="14" height="14" fill="#9370e8"/>
<rect x="70" y="378" width="14" height="14" fill="#9370e8"/>
<rect x="84" y="378" width="14" height="14" fill="#9370e8"/>
<rect x="98" y="378" width="14" height="14" fill="#4c2889"/>
<rect x="112" y="378" width="14" height="14" fill="#9370e8"/>
<rect x="126" y="378" width="14" height="14" fill="#9370e8"/>
<rect x="140" y="378" width="14" height="14" fill="#7c3aed"/>
<rect x="154" y="378" width="14" height="14" fill="#4c2889"/>
<rect x="168" y="378" width="14" height="14" fill="#7c3aed"/>
<rect x="182" y="378" width="14" height="14" fill="#7c3aed"/>
<rect x="196" y="378" width="14" height="14" fill="#7c3aed"/>
<rect x="210" y="378" width="14" height="14" fill="#4c2889"/>
<rect x="224" y="378" width="14" height="14" fill="#7c3aed"/>
<rect x="238" y="378" width="14" height="14" fill="#7c3aed"/>
<rect x="252" y="378" width="14" height="14" fill="#7c3aed"/>
<rect x="266" y="378" width="14" height="14" fill="#4c2889"/>
<rect x="280" y="378" width="14" height="14" fill="#7c3aed"/>
<rect x="294" y="378" width="14" height="14" fill="#7c3aed"/>
<rect x="308" y="378" width="14" height="14" fill="#7c3aed"/>
<rect x="322" y="378" width="14" height="14" fill="#4c2889"/>
<rect x="336" y="378" width="14" height="14" fill="#7c3aed"/>
<rect x="350" y="378" width="14" height="14" fill="#4c2889"/>
<rect x="364" y="378" width="14" height="14" fill="#4c2889"/>
<rect x="378" y="378" width="14" height="14" fill="#4c2889"/>
<rect x="392" y="378" width="14" height="14" fill="#4c2889"/>
<rect x="406" y="378" width="14" height="14" fill="#4c2889"/>
<rect x="420" y="378" width="14" height="14" fill="#12081f"/>
<rect x="14" y="392" width="14" height="14" fill="#12081f"/>
<rect x="28" y="392" width="14" height="14" fill="#9370e8"/>
<rect x="42" y="392" width="14" height="14" fill="#4c2889"/>
<rect x="56" y="392" width="14" height="14" fill="#9370e8"/>
<rect x="70" y="392" width="14" height="14" fill="#9370e8"/>
<rect x="84" y="392" width="14" height="14" fill="#9370e8"/>
<rect x="98" y="392" width="14" height="14" fill="#4c2889"/>
<rect x="112" y="392" width="14" height="14" fill="#9370e8"/>
<rect x="126" y="392" width="14" height="14" fill="#9370e8"/>
<rect x="140" y="392" width="14" height="14" fill="#7c3aed"/>
<rect x="154" y="392" width="14" height="14" fill="#4c2889"/>
<rect x="168" y="392" width="14" height="14" fill="#7c3aed"/>
<rect x="182" y="392" width="14" height="14" fill="#7c3aed"/>
<rect x="196" y="392" width="14" height="14" fill="#7c3aed"/>
<rect x="210" y="392" width="14" height="14" fill="#4c2889"/>
<rect x="224" y="392" width="14" height="14" fill="#7c3aed"/>
<rect x="238" y="392" width="14" height="14" fill="#7c3aed"/>
<rect x="252" y="392" width="14" height="14" fill="#7c3aed"/>
<rect x="266" y="392" width="14" height="14" fill="#4c2889"/>
<rect x="280" y="392" width="14" height="14" fill="#7c3aed"/>
<rect x="294" y="392" width="14" height="14" fill="#7c3aed"/>
<rect x="308" y="392" width="14" height="14" fill="#7c3aed"/>
<rect x="322" y="392" width="14" height="14" fill="#4c2889"/>
<rect x="336" y="392" width="14" height="14" fill="#7c3aed"/>
<rect x="350" y="392" width="14" height="14" fill="#4c2889"/>
<rect x="364" y="392" width="14" height="14" fill="#4c2889"/>
<rect x="378" y="392" width="14" height="14" fill="#4c2889"/>
<rect x="392" y="392" width="14" height="14" fill="#4c2889"/>
<rect x="406" y="392" width="14" height="14" fill="#4c2889"/>
<rect x="420" y="392" width="14" height="14" fill="#12081f"/>
<rect x="14" y="406" width="14" height="14" fill="#12081f"/>
<rect x="28" y="406" width="14" height="14" fill="#9370e8"/>
<rect x="42" y="406" width="14" height="14" fill="#4c2889"/>
<rect x="56" y="406" width="14" height="14" fill="#9370e8"/>
<rect x="70" y="406" width="14" height="14" fill="#9370e8"/>
<rect x="84" y="406" width="14" height="14" fill="#12081f"/>
<rect x="98" y="406" width="14" height="14" fill="#12081f"/>
<rect x="112" y="406" width="14" height="14" fill="#9370e8"/>
<rect x="126" y="406" width="14" height="14" fill="#9370e8"/>
<rect x="140" y="406" width="14" height="14" fill="#12081f"/>
<rect x="154" y="406" width="14" height="14" fill="#12081f"/>
<rect x="168" y="406" width="14" height="14" fill="#7c3aed"/>
<rect x="182" y="406" width="14" height="14" fill="#7c3aed"/>
<rect x="196" y="406" width="14" height="14" fill="#12081f"/>
<rect x="210" y="406" width="14" height="14" fill="#12081f"/>
<rect x="224" y="406" width="14" height="14" fill="#7c3aed"/>
<rect x="238" y="406" width="14" height="14" fill="#7c3aed"/>
<rect x="252" y="406" width="14" height="14" fill="#12081f"/>
<rect x="266" y="406" width="14" height="14" fill="#12081f"/>
<rect x="280" y="406" width="14" height="14" fill="#7c3aed"/>
<rect x="294" y="406" width="14" height="14" fill="#7c3aed"/>
<rect x="308" y="406" width="14" height="14" fill="#12081f"/>
<rect x="322" y="406" width="14" height="14" fill="#12081f"/>
<rect x="336" y="406" width="14" height="14" fill="#4c2889"/>
<rect x="350" y="406" width="14" height="14" fill="#4c2889"/>
<rect x="364" y="406" width="14" height="14" fill="#4c2889"/>
<rect x="378" y="406" width="14" height="14" fill="#4c2889"/>
<rect x="392" y="406" width="14" height="14" fill="#4c2889"/>
<rect x="406" y="406" width="14" height="14" fill="#4c2889"/>
<rect x="420" y="406" width="14" height="14" fill="#12081f"/>
<rect x="0" y="420" width="14" height="14" fill="#12081f"/>
<rect x="14" y="420" width="14" height="14" fill="#9370e8"/>
<rect x="28" y="420" width="14" height="14" fill="#9370e8"/>
<rect x="42" y="420" width="14" height="14" fill="#4c2889"/>
<rect x="56" y="420" width="14" height="14" fill="#9370e8"/>
<rect x="70" y="420" width="14" height="14" fill="#12081f"/>
<rect x="112" y="420" width="14" height="14" fill="#12081f"/>
<rect x="126" y="420" width="14" height="14" fill="#12081f"/>
<rect x="168" y="420" width="14" height="14" fill="#12081f"/>
<rect x="182" y="420" width="14" height="14" fill="#12081f"/>
<rect x="224" y="420" width="14" height="14" fill="#12081f"/>
<rect x="238" y="420" width="14" height="14" fill="#12081f"/>
<rect x="280" y="420" width="14" height="14" fill="#12081f"/>
<rect x="294" y="420" width="14" height="14" fill="#12081f"/>
<rect x="336" y="420" width="14" height="14" fill="#12081f"/>
<rect x="350" y="420" width="14" height="14" fill="#4c2889"/>
<rect x="364" y="420" width="14" height="14" fill="#4c2889"/>
<rect x="378" y="420" width="14" height="14" fill="#4c2889"/>
<rect x="392" y="420" width="14" height="14" fill="#4c2889"/>
<rect x="406" y="420" width="14" height="14" fill="#4c2889"/>
<rect x="420" y="420" width="14" height="14" fill="#4c2889"/>
<rect x="434" y="420" width="14" height="14" fill="#12081f"/>
<rect x="0" y="434" width="14" height="14" fill="#12081f"/>
<rect x="14" y="434" width="14" height="14" fill="#12081f"/>
<rect x="28" y="434" width="14" height="14" fill="#12081f"/>
<rect x="42" y="434" width="14" height="14" fill="#12081f"/>
<rect x="56" y="434" width="14" height="14" fill="#12081f"/>
<rect x="70" y="434" width="14" height="14" fill="#12081f"/>
<rect x="112" y="434" width="14" height="14" fill="#12081f"/>
<rect x="126" y="434" width="14" height="14" fill="#12081f"/>
<rect x="168" y="434" width="14" height="14" fill="#12081f"/>
<rect x="182" y="434" width="14" height="14" fill="#12081f"/>
<rect x="224" y="434" width="14" height="14" fill="#12081f"/>
<rect x="238" y="434" width="14" height="14" fill="#12081f"/>
<rect x="280" y="434" width="14" height="14" fill="#12081f"/>
<rect x="294" y="434" width="14" height="14" fill="#12081f"/>
<rect x="336" y="434" width="14" height="14" fill="#12081f"/>
<rect x="350" y="434" width="14" height="14" fill="#12081f"/>
<rect x="364" y="434" width="14" height="14" fill="#12081f"/>
<rect x="378" y="434" width="14" height="14" fill="#12081f"/>
<rect x="392" y="434" width="14" height="14" fill="#12081f"/>
<rect x="406" y="434" width="14" height="14" fill="#12081f"/>
<rect x="420" y="434" width="14" height="14" fill="#12081f"/>
<rect x="434" y="434" width="14" height="14" fill="#12081f"/>
</svg>